# xmcd
#
# Track frame offsets: 
#        150
#        19725
#        32920
#        46185
#        66790
#        89825
#        98157
#        115237
#        133880
#        149887
#        165057
#        180670
#
# Disc length: 2632 seconds
#
# Revision: 11
# Processed by: cddbd v1.5.2PL0 Copyright (c) Steve Scherf et al.
# Submitted via: ExactAudioCopy v1.3
#
DISCID=a80a460c
DTITLE=Mississippi John Hurt - The Complete Studio Recordings
DYEAR=2000
DGENRE=Blues
TTITLE0=Pay Day
TTITLE1=I'm Satisfied
TTITLE2=Candy Man
TTITLE3=Make Me a Pallet On Your Floor
TTITLE4=Talking Casey
TTITLE5=Corrina, Corrina
TTITLE6=Coffee Blues
TTITLE7=Louis Collins
TTITLE8=Hot Time in the Old Town Tonight
TTITLE9=If You Don't Want Me Baby
TTITLE10=Spike Driver Blues
TTITLE11=Beulah Land
EXTD=
EXTT0=
EXTT1=
EXTT2=
EXTT3=
EXTT4=
EXTT5=
EXTT6=
EXTT7=
EXTT8=
EXTT9=
EXTT10=
EXTT11=
PLAYORDER=
